<?xml version="1.0" encoding="utf-8"?>
<!-- Generator: Adobe Illustrator 17.0.0, SVG Export Plug-In . SVG Version: 6.00 Build 0)  -->
<!DOCTYPE svg PUBLIC "-//W3C//DTD SVG 1.1//EN" "http://www.w3.org/Graphics/SVG/1.1/DTD/svg11.dtd">
<svg version="1.1" id="Слой_1" xmlns="http://www.w3.org/2000/svg" xmlns:xlink="http://www.w3.org/1999/xlink" x="0px" y="0px"
	 width="30px" height="42.001px" viewBox="0 0 30 42.001" enable-background="new 0 0 30 42.001" xml:space="preserve">
<g>
	<path fill="#00A5FF" d="M15,2c7.18,0,13,5.82,13,13v12.001c0,7.18-5.82,13-13,13h0c-7.18,0-13-5.82-13-13V15C2,7.82,7.82,2,15,2
		L15,2 M15,0C6.729,0,0,6.729,0,15v12.001c0,8.271,6.729,15,15,15c8.271,0,15-6.729,15-15V15C30,6.729,23.271,0,15,0L15,0z"/>
</g>
</svg>
